<?xml version="1.0" encoding="UTF-8"?>
<svg id="Layer_1" xmlns="http://www.w3.org/2000/svg" version="1.1" viewBox="0 0 1080 1080">
  <!-- Generator: Adobe Illustrator 29.5.1, SVG Export Plug-In . SVG Version: 2.1.0 Build 141)  -->
  <defs>
    <style>
      .st0 {
        fill: #edbb68;
      }
    </style>
  </defs>
  <path class="st0" d="M404.85,752.7v-111.54c0-79.14-8.52-147.71-92.45-147.71-16.98,0-33.97,7.44-49.38,20.21-25.5,21.24-39.3,53.64-39.3,86.58v152.45c0,4.11.44,8.17,1.37,12.14,1.57,7.24,4.6,14.1,8.71,20.26,5.82,9.05,14.88,16.49,26.04,20.7H123.82c21.78-8.47,36.12-29.71,36.12-53.1v-101.7c-.15-5.82-.2-11.55-.2-17.28v-239.42h-45.81v-8.52c17.57-3.72,33.08-10.03,45.66-17.42.05-.05.1-.05.15-.1,46.3-26.58,62.89-66.9,63.92-69.06v86.58h.05v171.98c19.63-51.54,65.88-84.47,125.88-84.47,112.62,0,118.98,92.45,118.98,151.92v128.03c.54,11.7,3.72,22.32,10.08,31.86,5.87,9.05,14.88,16.49,26.04,20.7h-135.96c21.78-8.47,36.12-29.71,36.12-53.1Z"/>
  <path class="st0" d="M783.93,752.7v-111.54c0-79.14-8.52-147.71-92.45-147.71-16.98,0-33.97,7.44-49.38,20.21-25.5,21.24-39.3,53.64-39.3,86.58v152.45c0,4.11.44,8.17,1.37,12.14,1.57,7.24,4.6,14.1,8.71,20.26,5.82,9.05,14.88,16.49,26.04,20.7h-136.01c21.78-8.47,36.12-29.71,36.12-53.1v-101.7c-.15-5.82-.2-11.55-.2-17.28v-239.42h-45.81v-8.52c17.57-3.72,33.08-10.03,45.66-17.42.05-.05.1-.05.15-.1,46.3-26.58,62.89-66.9,63.92-69.06v86.58h.05v171.98c19.63-51.54,65.88-84.47,125.88-84.47,112.62,0,118.98,92.45,118.98,151.92v128.03c.54,11.7,3.72,22.32,10.08,31.86,5.87,9.05,14.88,16.49,26.04,20.7h-135.96c21.78-8.47,36.12-29.71,36.12-53.1Z"/>
  <circle class="st0" cx="929.54" cy="768.27" r="37.53"/>
</svg>