<?xml version="1.0" encoding="UTF-8"?>
<svg version="1.1" xmlns="http://www.w3.org/2000/svg" width="500" height="500">
<path d="M0 0 C1.08674643 -0.00128164 1.08674643 -0.00128164 2.19544733 -0.00258917 C4.63531768 -0.00424288 7.07512005 0.00127563 9.51498413 0.00672913 C11.25909931 0.00701105 13.0032146 0.00685317 14.74732971 0.00628662 C19.49293803 0.00599884 24.23852124 0.01189248 28.98412371 0.01886058 C33.93958949 0.0250973 38.8950558 0.02569817 43.8505249 0.02688599 C53.2392368 0.02999836 62.6279371 0.03821049 72.01664388 0.04823548 C82.70330519 0.05939953 93.38996705 0.0649078 104.07663274 0.06993091 C126.06439046 0.08039317 148.05213774 0.0979908 170.03988647 0.12025452 C170.03988647 0.78025452 170.03988647 1.44025452 170.03988647 2.12025452 C171.86326538 2.10285217 171.86326538 2.10285217 173.72348022 2.08509827 C175.30811411 2.07572173 176.89274965 2.06662139 178.47738647 2.05775452 C179.27982788 2.04937561 180.08226929 2.0409967 180.9090271 2.03236389 C182.95283868 2.02374021 184.99672549 2.06797302 187.03988647 2.12025452 C187.36988647 2.45025452 187.69988647 2.78025452 188.03988647 3.12025452 C190.45764288 3.47810652 192.86227548 3.78462047 195.28988647 4.05775452 C202.56770596 4.91735244 209.803915 5.95556048 217.03988647 7.12025452 C217.03988647 7.45025452 217.03988647 7.78025452 217.03988647 8.12025452 C218.19488647 8.22337952 219.34988647 8.32650452 220.53988647 8.43275452 C224.30165444 8.89553792 227.44640382 9.93683908 230.94223022 11.35462952 C234.5447455 12.66951405 238.28377304 13.38120442 242.03988647 14.12025452 C242.03988647 14.78025452 242.03988647 15.44025452 242.03988647 16.12025452 C242.69988647 16.22337952 243.35988647 16.32650452 244.03988647 16.43275452 C247.2000007 17.15694736 250.06706372 18.2102257 253.07504272 19.40150452 C255.04392623 20.12173228 256.99886778 20.64750186 259.03988647 21.12025452 C259.03988647 21.78025452 259.03988647 22.44025452 259.03988647 23.12025452 C260.02988647 23.12025452 261.01988647 23.12025452 262.03988647 23.12025452 C262.03988647 23.78025452 262.03988647 24.44025452 262.03988647 25.12025452 C263.11238647 25.24400452 264.18488647 25.36775452 265.28988647 25.49525452 C268.41852263 26.01669388 270.37469071 26.52113706 273.03988647 28.12025452 C273.03988647 28.78025452 273.03988647 29.44025452 273.03988647 30.12025452 C273.72051147 30.20275452 274.40113647 30.28525452 275.10238647 30.37025452 C278.91457717 31.3435798 281.68058977 33.07832907 285.03988647 35.12025452 C285.03988647 35.78025452 285.03988647 36.44025452 285.03988647 37.12025452 C286.02988647 37.12025452 287.01988647 37.12025452 288.03988647 37.12025452 C288.03988647 37.78025452 288.03988647 38.44025452 288.03988647 39.12025452 C289.68988647 39.45025452 291.33988647 39.78025452 293.03988647 40.12025452 C293.03988647 40.78025452 293.03988647 41.44025452 293.03988647 42.12025452 C293.69988647 42.12025452 294.35988647 42.12025452 295.03988647 42.12025452 C295.03988647 42.78025452 295.03988647 43.44025452 295.03988647 44.12025452 C295.69988647 44.12025452 296.35988647 44.12025452 297.03988647 44.12025452 C297.03988647 44.78025452 297.03988647 45.44025452 297.03988647 46.12025452 C298.68988647 46.45025452 300.33988647 46.78025452 302.03988647 47.12025452 C302.03988647 47.78025452 302.03988647 48.44025452 302.03988647 49.12025452 C302.69988647 49.12025452 303.35988647 49.12025452 304.03988647 49.12025452 C304.03988647 49.78025452 304.03988647 50.44025452 304.03988647 51.12025452 C304.65863647 51.42962952 305.27738647 51.73900452 305.91488647 52.05775452 C307.28988647 52.74525452 308.66488647 53.43275452 310.03988647 54.12025452 C310.03988647 54.78025452 310.03988647 55.44025452 310.03988647 56.12025452 C310.69988647 56.12025452 311.35988647 56.12025452 312.03988647 56.12025452 C312.03988647 56.78025452 312.03988647 57.44025452 312.03988647 58.12025452 C312.69988647 58.12025452 313.35988647 58.12025452 314.03988647 58.12025452 C315.66488647 59.49525452 315.66488647 59.49525452 317.03988647 61.12025452 C317.03988647 61.78025452 317.03988647 62.44025452 317.03988647 63.12025452 C317.69988647 63.12025452 318.35988647 63.12025452 319.03988647 63.12025452 C320.54769897 64.58119202 320.54769897 64.58119202 322.16488647 66.49525452 C322.97312866 67.43498108 322.97312866 67.43498108 323.79769897 68.39369202 C325.03988647 70.12025452 325.03988647 70.12025452 325.03988647 72.12025452 C326.02988647 72.45025452 327.01988647 72.78025452 328.03988647 73.12025452 C328.03988647 73.78025452 328.03988647 74.44025452 328.03988647 75.12025452 C328.69988647 75.12025452 329.35988647 75.12025452 330.03988647 75.12025452 C333.03988647 79.5048699 333.03988647 79.5048699 333.03988647 82.12025452 C333.69988647 82.12025452 334.35988647 82.12025452 335.03988647 82.12025452 C335.03988647 82.78025452 335.03988647 83.44025452 335.03988647 84.12025452 C335.69988647 84.12025452 336.35988647 84.12025452 337.03988647 84.12025452 C337.03988647 85.11025452 337.03988647 86.10025452 337.03988647 87.12025452 C337.69988647 87.12025452 338.35988647 87.12025452 339.03988647 87.12025452 C340.32894897 88.76478577 340.32894897 88.76478577 341.66488647 90.93275452 C342.1109021 91.64044983 342.55691772 92.34814514 343.01644897 93.07728577 C344.03988647 95.12025452 344.03988647 95.12025452 344.03988647 98.12025452 C344.69988647 98.12025452 345.35988647 98.12025452 346.03988647 98.12025452 C346.36988647 99.77025452 346.69988647 101.42025452 347.03988647 103.12025452 C347.69988647 103.12025452 348.35988647 103.12025452 349.03988647 103.12025452 C349.03988647 104.11025452 349.03988647 105.10025452 349.03988647 106.12025452 C349.69988647 106.12025452 350.35988647 106.12025452 351.03988647 106.12025452 C351.23324585 106.67455139 351.42660522 107.22884827 351.62582397 107.79994202 C351.8862146 108.52439514 352.14660522 109.24884827 352.41488647 109.99525452 C352.79773804 111.07419983 352.79773804 111.07419983 353.18832397 112.17494202 C353.9786643 114.30183445 353.9786643 114.30183445 356.03988647 116.12025452 C356.03988647 117.44025452 356.03988647 118.76025452 356.03988647 120.12025452 C356.69988647 120.12025452 357.35988647 120.12025452 358.03988647 120.12025452 C362.2631211 131.64189461 362.2631211 131.64189461 364.03988647 137.12025452 C364.36988647 137.12025452 364.69988647 137.12025452 365.03988647 137.12025452 C365.30543335 138.13345764 365.57098022 139.14666077 365.84457397 140.19056702 C366.20124337 141.54215629 366.5580199 142.89371729 366.91488647 144.24525452 C367.08890991 144.91041077 367.26293335 145.57556702 367.44223022 146.26087952 C368.50299978 150.26823116 369.68420958 154.19978351 371.03988647 158.12025452 C371.36988647 158.12025452 371.69988647 158.12025452 372.03988647 158.12025452 C372.36988647 161.75025452 372.69988647 165.38025452 373.03988647 169.12025452 C374.7632019 169.08097839 374.7632019 169.08097839 376.52133179 169.04090881 C380.83753512 168.94950733 385.15365537 168.89268287 389.47055054 168.84559631 C391.32877042 168.82065484 393.18689429 168.78668866 395.04476929 168.74305725 C406.12875757 168.48952146 415.1641965 168.47900194 425.03988647 174.12025452 C425.03988647 174.78025452 425.03988647 175.44025452 425.03988647 176.12025452 C425.96801147 176.58431702 425.96801147 176.58431702 426.91488647 177.05775452 C428.28988647 177.74525452 429.66488647 178.43275452 431.03988647 179.12025452 C431.03988647 179.78025452 431.03988647 180.44025452 431.03988647 181.12025452 C431.69988647 181.12025452 432.35988647 181.12025452 433.03988647 181.12025452 C435.33637297 183.68172022 436.03988647 184.59993024 436.03988647 188.12025452 C436.69988647 188.12025452 437.35988647 188.12025452 438.03988647 188.12025452 C440.19294605 191.97781958 441.43241902 194.67155237 441.03988647 199.12025452 C441.69988647 199.12025452 442.35988647 199.12025452 443.03988647 199.12025452 C443.03988647 200.44025452 443.03988647 201.76025452 443.03988647 203.12025452 C443.69988647 203.12025452 444.35988647 203.12025452 445.03988647 203.12025452 C445.03988647 212.03025452 445.03988647 220.94025452 445.03988647 230.12025452 C443.38988647 229.79025452 441.73988647 229.46025452 440.03988647 229.12025452 C440.03988647 228.46025452 440.03988647 227.80025452 440.03988647 227.12025452 C439.37988647 227.12025452 438.71988647 227.12025452 438.03988647 227.12025452 C438.03988647 226.46025452 438.03988647 225.80025452 438.03988647 225.12025452 C437.04988647 225.12025452 436.05988647 225.12025452 435.03988647 225.12025452 C434.37988647 224.13025452 433.71988647 223.14025452 433.03988647 222.12025452 C430.09221756 221.02485041 427.21086823 220.97127738 424.08773804 220.91493225 C423.10702332 220.89498703 422.12630859 220.87504181 421.11587524 220.85449219 C420.0647052 220.83777969 419.01353516 220.8210672 417.93051147 220.80384827 C416.30759186 220.77267662 416.30759186 220.77267662 414.65188599 220.74087524 C411.19795034 220.67552521 407.7439391 220.61656222 404.28988647 220.55775452 C401.94743076 220.51455548 399.60498267 220.47094074 397.26254272 220.42689514 C391.52173707 220.31985869 385.78085632 220.21806526 380.03988647 220.12025452 C380.14599243 221.31364441 380.14599243 221.31364441 380.25424194 222.53114319 C380.89460717 230.18232592 381.19458153 237.75658229 381.16488647 245.43275452 C381.16875366 246.45175842 381.17262085 247.47076233 381.17660522 248.52064514 C381.16933825 254.14892078 380.87785348 259.55375944 380.03988647 265.12025452 C380.95689331 265.10454407 381.87390015 265.08883362 382.81869507 265.07264709 C386.26667088 265.02109061 389.71422878 264.98369897 393.16244507 264.95545959 C394.64623537 264.94050268 396.12998247 264.92012957 397.61361694 264.89393616 C406.16029501 264.74697709 413.97715234 264.85267372 422.03988647 268.12025452 C422.03988647 268.78025452 422.03988647 269.44025452 422.03988647 270.12025452 C423.02988647 270.12025452 424.01988647 270.12025452 425.03988647 270.12025452 C425.03988647 270.78025452 425.03988647 271.44025452 425.03988647 272.12025452 C426.35988647 272.45025452 427.67988647 272.78025452 429.03988647 273.12025452 C429.03988647 273.78025452 429.03988647 274.44025452 429.03988647 275.12025452 C429.69988647 275.12025452 430.35988647 275.12025452 431.03988647 275.12025452 C431.03988647 275.78025452 431.03988647 276.44025452 431.03988647 277.12025452 C431.69988647 277.12025452 432.35988647 277.12025452 433.03988647 277.12025452 C435.33637297 279.68172022 436.03988647 280.59993024 436.03988647 284.12025452 C436.69988647 284.12025452 437.35988647 284.12025452 438.03988647 284.12025452 C441.42360316 288.53379802 442.59492702 293.84256573 444.03988647 299.12025452 C444.36988647 299.12025452 444.69988647 299.12025452 445.03988647 299.12025452 C445.03988647 308.03025452 445.03988647 316.94025452 445.03988647 326.12025452 C441.03988647 326.12025452 441.03988647 326.12025452 438.53988647 323.74525452 C437.71488647 322.87900452 436.88988647 322.01275452 436.03988647 321.12025452 C433.87368103 319.82505456 433.87368103 319.82505456 432.03988647 319.12025452 C432.03988647 318.46025452 432.03988647 317.80025452 432.03988647 317.12025452 C430.83332397 317.15119202 430.83332397 317.15119202 429.60238647 317.18275452 C427.03988647 317.12025452 427.03988647 317.12025452 426.03988647 316.12025452 C424.38344281 315.99734733 422.72189655 315.94241544 421.06112671 315.91493225 C420.00010239 315.89498703 418.93907806 315.87504181 417.84590149 315.85449219 C416.69175247 315.83777969 415.53760345 315.8210672 414.34848022 315.80384827 C413.17350479 315.78306717 411.99852936 315.76228607 410.78794861 315.74087524 C407.01782324 315.67525327 403.24762566 315.61643621 399.47738647 315.55775452 C396.92855075 315.51458132 394.37972244 315.47096744 391.8309021 315.42689514 C385.56730507 315.31955902 379.30363511 315.21832761 373.03988647 315.12025452 C372.70988647 318.75025452 372.37988647 322.38025452 372.03988647 326.12025452 C371.37988647 326.12025452 370.71988647 326.12025452 370.03988647 326.12025452 C369.91742554 327.11154358 369.7949646 328.10283264 369.66879272 329.12416077 C369.08685403 333.19773163 368.07724435 337.09748886 366.97738647 341.05775452 C366.79111694 341.74160217 366.60484741 342.42544983 366.41293335 343.13002014 C365.9589959 344.79445745 365.49997731 346.45750764 365.03988647 348.12025452 C364.37988647 348.12025452 363.71988647 348.12025452 363.03988647 348.12025452 C363.12238647 348.78025452 363.20488647 349.44025452 363.28988647 350.12025452 C362.99431185 353.66715 361.83022795 355.79697588 360.17269897 358.89759827 C359.00866374 361.18151567 358.07942646 363.47631162 357.16488647 365.87025452 C354.84944046 371.81631988 351.96115242 377.45299859 349.03988647 383.12025452 C348.37988647 383.12025452 347.71988647 383.12025452 347.03988647 383.12025452 C346.70988647 384.77025452 346.37988647 386.42025452 346.03988647 388.12025452 C345.37988647 388.12025452 344.71988647 388.12025452 344.03988647 388.12025452 C343.77176147 389.00712952 343.50363647 389.89400452 343.22738647 390.80775452 C342.11482298 393.91122112 340.9379287 396.43136137 339.03988647 399.12025452 C338.37988647 399.12025452 337.71988647 399.12025452 337.03988647 399.12025452 C336.37988647 400.77025452 335.71988647 402.42025452 335.03988647 404.12025452 C334.37988647 404.12025452 333.71988647 404.12025452 333.03988647 404.12025452 C332.70988647 405.44025452 332.37988647 406.76025452 332.03988647 408.12025452 C331.37988647 408.12025452 330.71988647 408.12025452 330.03988647 408.12025452 C330.03988647 409.11025452 330.03988647 410.10025452 330.03988647 411.12025452 C329.37988647 411.12025452 328.71988647 411.12025452 328.03988647 411.12025452 C328.03988647 411.78025452 328.03988647 412.44025452 328.03988647 413.12025452 C326.66488647 414.74525452 326.66488647 414.74525452 325.03988647 416.12025452 C324.37988647 416.12025452 323.71988647 416.12025452 323.03988647 416.12025452 C322.99863647 416.67712952 322.95738647 417.23400452 322.91488647 417.80775452 C321.596074 421.29318748 318.91052207 422.847668 316.03988647 425.12025452 C315.70988647 425.78025452 315.37988647 426.44025452 315.03988647 427.12025452 C314.04988647 427.45025452 313.05988647 427.78025452 312.03988647 428.12025452 C311.70988647 428.78025452 311.37988647 429.44025452 311.03988647 430.12025452 C310.37988647 430.12025452 309.71988647 430.12025452 309.03988647 430.12025452 C309.03988647 430.78025452 309.03988647 431.44025452 309.03988647 432.12025452 C308.37988647 432.12025452 307.71988647 432.12025452 307.03988647 432.12025452 C307.03988647 432.78025452 307.03988647 433.44025452 307.03988647 434.12025452 C306.04988647 434.12025452 305.05988647 434.12025452 304.03988647 434.12025452 C303.70988647 435.11025452 303.37988647 436.10025452 303.03988647 437.12025452 C302.04988647 437.12025452 301.05988647 437.12025452 300.03988647 437.12025452 C300.03988647 437.78025452 300.03988647 438.44025452 300.03988647 439.12025452 C298.57894897 440.40931702 298.57894897 440.40931702 296.66488647 441.74525452 C296.0384021 442.19127014 295.41191772 442.63728577 294.76644897 443.09681702 C293.03988647 444.12025452 293.03988647 444.12025452 291.03988647 444.12025452 C291.03988647 444.78025452 291.03988647 445.44025452 291.03988647 446.12025452 C285.28988647 449.12025452 285.28988647 449.12025452 283.03988647 449.12025452 C283.03988647 449.78025452 283.03988647 450.44025452 283.03988647 451.12025452 C282.04988647 451.12025452 281.05988647 451.12025452 280.03988647 451.12025452 C280.03988647 451.78025452 280.03988647 452.44025452 280.03988647 453.12025452 C277.06988647 454.11025452 274.09988647 455.10025452 271.03988647 456.12025452 C271.03988647 456.78025452 271.03988647 457.44025452 271.03988647 458.12025452 C269.71988647 458.12025452 268.39988647 458.12025452 267.03988647 458.12025452 C267.03988647 458.78025452 267.03988647 459.44025452 267.03988647 460.12025452 C259.75417219 463.54882595 259.75417219 463.54882595 255.03988647 463.12025452 C255.03988647 463.78025452 255.03988647 464.44025452 255.03988647 465.12025452 C253.71988647 465.12025452 252.39988647 465.12025452 251.03988647 465.12025452 C251.03988647 465.78025452 251.03988647 466.44025452 251.03988647 467.12025452 C249.29171789 467.62662059 247.54126385 468.1251007 245.78988647 468.62025452 C244.81535522 468.89869202 243.84082397 469.17712952 242.83676147 469.46400452 C240.03988647 470.12025452 240.03988647 470.12025452 236.03988647 470.12025452 C236.03988647 470.78025452 236.03988647 471.44025452 236.03988647 472.12025452 C231.89770064 473.60894988 227.95712048 474.56064966 223.60238647 475.18275452 C222.47574585 475.34646545 221.34910522 475.51017639 220.18832397 475.67884827 C219.1493396 475.82451233 218.11035522 475.97017639 217.03988647 476.12025452 C216.2484021 476.23498108 215.45691772 476.34970764 214.64144897 476.46791077 C213.10826942 476.69006535 211.57421265 476.90616249 210.03988647 477.12025452 C210.03988647 477.78025452 210.03988647 478.44025452 210.03988647 479.12025452 C196.36801147 480.48744202 196.36801147 480.48744202 193.62192154 480.7556324 C190.97993084 481.02456563 188.34277185 481.31103454 185.70440292 481.61157036 C174.20687636 482.88804602 162.89903965 483.40052525 151.33773804 483.3473053 C149.5712637 483.34673898 147.80478889 483.34706203 146.03831482 483.34819031 C141.31440031 483.34875623 136.59059065 483.33712748 131.86670017 483.32304239 C126.90333675 483.31040594 121.93997004 483.30935449 116.97659302 483.30699158 C107.60971294 483.3008143 98.24288043 483.28445513 88.87602115 483.2642926 C78.19862088 483.2418157 67.52121816 483.23091073 56.84380007 483.22090173 C34.90913582 483.20008489 12.97451416 483.16498316 -8.96011353 483.12025452 C-9.92044174 480.07684048 -10.07987549 479.3959766 -8.74526978 476.32337952 C-8.17679321 475.34884827 -7.60831665 474.37431702 -7.02261353 473.37025452 C-6.45671509 472.38541077 -5.89081665 471.40056702 -5.30776978 470.38587952 C-4.86304321 469.63822327 -4.41831665 468.89056702 -3.96011353 468.12025452 C-3.30011353 468.12025452 -2.64011353 468.12025452 -1.96011353 468.12025452 C-1.89823853 467.21275452 -1.83636353 466.30525452 -1.77261353 465.37025452 C-1.27935614 461.75786957 -0.01750795 458.81040274 1.47738647 455.49525452 C3.9248067 449.91626488 4.96522265 444.66967056 5.68051147 438.63978577 C6.03988647 436.12025452 6.03988647 436.12025452 7.03988647 435.12025452 C7.27442304 432.02849602 7.44569093 428.95533508 7.57504272 425.85853577 C7.61815582 424.897444 7.66126892 423.93635223 7.70568848 422.94613647 C7.84465917 419.77525531 7.97458156 416.60410448 8.10238647 413.43275452 C8.14690948 412.35137207 8.1914325 411.26998962 8.23730469 410.15583801 C9.34783572 382.76847703 9.55790921 355.44171594 8.25863647 328.05775452 C7.77822094 317.64358558 7.77822094 317.64358558 9.03988647 315.12025452 C8.15317261 315.13596497 7.26645874 315.15167542 6.35287476 315.16786194 C3.01671325 315.2194386 -0.31901561 315.25681943 -3.65542603 315.28504944 C-5.09071602 315.30000038 -6.52596144 315.32036876 -7.96109009 315.34657288 C-16.37913364 315.49626612 -24.01169846 315.30656553 -31.96011353 312.12025452 C-31.96011353 311.46025452 -31.96011353 310.80025452 -31.96011353 310.12025452 C-32.95011353 310.12025452 -33.94011353 310.12025452 -34.96011353 310.12025452 C-34.96011353 309.46025452 -34.96011353 308.80025452 -34.96011353 308.12025452 C-36.28011353 307.79025452 -37.60011353 307.46025452 -38.96011353 307.12025452 C-38.96011353 306.46025452 -38.96011353 305.80025452 -38.96011353 305.12025452 C-39.95011353 304.79025452 -40.94011353 304.46025452 -41.96011353 304.12025452 C-46.87549162 299.20487642 -49.30137086 293.47860932 -51.96011353 287.12025452 C-52.29011353 287.12025452 -52.62011353 287.12025452 -52.96011353 287.12025452 C-54.85147223 279.50577657 -55.20868308 272.31815781 -55.08511353 264.49525452 C-55.07609009 263.3956842 -55.06706665 262.29611389 -55.05776978 261.16322327 C-55.03445476 258.48199694 -55.00173392 255.80124845 -54.96011353 253.12025452 C-53.31011353 253.45025452 -51.66011353 253.78025452 -49.96011353 254.12025452 C-49.96011353 254.78025452 -49.96011353 255.44025452 -49.96011353 256.12025452 C-49.30011353 256.12025452 -48.64011353 256.12025452 -47.96011353 256.12025452 C-47.96011353 256.78025452 -47.96011353 257.44025452 -47.96011353 258.12025452 C-47.30011353 258.12025452 -46.64011353 258.12025452 -45.96011353 258.12025452 C-45.96011353 258.78025452 -45.96011353 259.44025452 -45.96011353 260.12025452 C-43.98011353 260.45025452 -42.00011353 260.78025452 -39.96011353 261.12025452 C-39.96011353 261.78025452 -39.96011353 262.44025452 -39.96011353 263.12025452 C-37.97443644 263.08770243 -35.98875936 263.05515035 -34.00308228 263.02259827 C-31.96011353 263.12025452 -31.96011353 263.12025452 -28.96011353 264.12025452 C-26.08572805 264.27439328 -23.23112367 264.37772737 -20.35464478 264.43666077 C-19.09583748 264.46783241 -19.09583748 264.46783241 -17.81159973 264.49963379 C-15.13202059 264.5649947 -12.45234383 264.62395166 -9.77261353 264.68275452 C-7.95554616 264.72595254 -6.13848864 264.76956724 -4.32144165 264.81361389 C0.13223447 264.92066231 4.58600873 265.02196771 9.03988647 265.12025452 C8.70988647 264.46025452 8.37988647 263.80025452 8.03988647 263.12025452 C7.95086155 261.76180259 7.92228516 260.39909477 7.92636108 259.03773499 C7.92643661 258.19701447 7.92651215 257.35629395 7.92658997 256.49009705 C7.93175125 255.58172089 7.93691254 254.67334473 7.94223022 253.73744202 C7.94364517 252.80803802 7.94506012 251.87863403 7.94651794 250.92106628 C7.95212595 247.94576327 7.9646798 244.97053487 7.97738647 241.99525452 C7.98240044 239.98093268 7.98696353 237.96660968 7.99105835 235.95228577 C8.00124809 231.00822331 8.02082194 226.06432267 8.03988647 221.12025452 C-1.53011353 220.79025452 -11.10011353 220.46025452 -20.96011353 220.12025452 C-20.96011353 219.46025452 -20.96011353 218.80025452 -20.96011353 218.12025452 C-22.94011353 218.12025452 -24.92011353 218.12025452 -26.96011353 218.12025452 C-26.96011353 217.46025452 -26.96011353 216.80025452 -26.96011353 216.12025452 C-28.59980103 215.93462952 -28.59980103 215.93462952 -30.27261353 215.74525452 C-33.96011353 215.12025452 -33.96011353 215.12025452 -36.96011353 213.12025452 C-36.96011353 212.46025452 -36.96011353 211.80025452 -36.96011353 211.12025452 C-37.62011353 211.12025452 -38.28011353 211.12025452 -38.96011353 211.12025452 C-38.96011353 210.46025452 -38.96011353 209.80025452 -38.96011353 209.12025452 C-39.91917603 208.71806702 -39.91917603 208.71806702 -40.89761353 208.30775452 C-42.96011353 207.12025452 -42.96011353 207.12025452 -43.96011353 204.12025452 C-44.62011353 204.12025452 -45.28011353 204.12025452 -45.96011353 204.12025452 C-48.39171958 200.75341537 -48.96011353 199.38675087 -48.96011353 195.12025452 C-49.62011353 195.12025452 -50.28011353 195.12025452 -50.96011353 195.12025452 C-55.50451167 186.8723508 -55.23799866 177.09998243 -55.08511353 167.93275452 C-55.07609009 166.88539124 -55.06706665 165.83802795 -55.05776978 164.75892639 C-55.03451428 162.21244938 -55.00183921 159.66648421 -54.96011353 157.12025452 C-51.99836229 157.73303063 -50.5795257 158.37397973 -47.96011353 160.12025452 C-47.96011353 160.78025452 -47.96011353 161.44025452 -47.96011353 162.12025452 C-47.30011353 162.12025452 -46.64011353 162.12025452 -45.96011353 162.12025452 C-45.96011353 162.78025452 -45.96011353 163.44025452 -45.96011353 164.12025452 C-40.97781577 166.03652288 -36.23326685 166.67496601 -30.96011353 167.12025452 C-30.96011353 167.45025452 -30.96011353 167.78025452 -30.96011353 168.12025452 C-18.09011353 168.45025452 -5.22011353 168.78025452 8.03988647 169.12025452 C8.06910458 153.98549069 8.06910458 153.98549069 8.0887146 138.85072327 C8.09462906 132.65296035 8.10152469 126.45521258 8.11532593 120.25746155 C8.16466273 97.52357867 8.16294223 74.8319859 7.03988647 52.12025452 C6.70988647 52.12025452 6.37988647 52.12025452 6.03988647 52.12025452 C5.96512085 51.24627014 5.89035522 50.37228577 5.81332397 49.47181702 C4.89338198 40.86765362 2.99914442 33.17355359 0.07260132 25.02503967 C-1.96011353 19.36382211 -1.96011353 19.36382211 -1.96011353 16.12025452 C-2.62011353 16.12025452 -3.28011353 16.12025452 -3.96011353 16.12025452 C-3.96011353 15.13025452 -3.96011353 14.14025452 -3.96011353 13.12025452 C-4.62011353 13.12025452 -5.28011353 13.12025452 -5.96011353 13.12025452 C-9.38868495 5.83454023 -9.38868495 5.83454023 -8.96011353 1.12025452 C-5.98793468 -0.36583491 -3.31743358 -0.00234613 0 0 Z M77.03988647 27.12025452 C77.03988647 42.63025452 77.03988647 58.14025452 77.03988647 74.12025452 C76.70988647 74.12025452 76.37988647 74.12025452 76.03988647 74.12025452 C76.03988647 97.88025452 76.03988647 121.64025452 76.03988647 146.12025452 C76.36988647 146.12025452 76.69988647 146.12025452 77.03988647 146.12025452 C77.03464966 146.74593323 77.02941284 147.37161194 77.02401733 148.01625061 C77.00327029 150.84257509 76.99023362 153.66888356 76.97738647 156.49525452 C76.96900757 157.48009827 76.96062866 158.46494202 76.95199585 159.47962952 C76.94877319 160.42064514 76.94555054 161.36166077 76.94223022 162.33119202 C76.93699341 163.20050354 76.93175659 164.06981506 76.92636108 164.96546936 C76.89866296 167.17075446 76.89866296 167.17075446 78.03988647 169.12025452 C150.63988647 169.12025452 223.23988647 169.12025452 298.03988647 169.12025452 C297.70988647 165.16025452 297.37988647 161.20025452 297.03988647 157.12025452 C296.37988647 157.12025452 295.71988647 157.12025452 295.03988647 157.12025452 C295.03988647 154.81025452 295.03988647 152.50025452 295.03988647 150.12025452 C294.70988647 150.12025452 294.37988647 150.12025452 294.03988647 150.12025452 C293.9187146 149.16763733 293.79754272 148.21502014 293.67269897 147.23353577 C293.50512085 145.97927795 293.33754272 144.72502014 293.16488647 143.43275452 C293.0024646 142.19138733 292.84004272 140.95002014 292.67269897 139.67103577 C292.11510278 136.54230156 291.34980524 133.9987735 290.03988647 131.12025452 C289.37988647 131.12025452 288.71988647 131.12025452 288.03988647 131.12025452 C288.03988647 128.81025452 288.03988647 126.50025452 288.03988647 124.12025452 C287.70988647 124.12025452 287.37988647 124.12025452 287.03988647 124.12025452 C286.04988647 119.66525452 286.04988647 119.66525452 285.03988647 115.12025452 C284.37988647 115.12025452 283.71988647 115.12025452 283.03988647 115.12025452 C283.03988647 113.47025452 283.03988647 111.82025452 283.03988647 110.12025452 C282.37988647 110.12025452 281.71988647 110.12025452 281.03988647 110.12025452 C280.95738647 109.48087952 280.87488647 108.84150452 280.78988647 108.18275452 C279.74468276 103.91483934 277.89896821 100.08917785 276.03988647 96.12025452 C275.37988647 96.12025452 274.71988647 96.12025452 274.03988647 96.12025452 C273.70988647 94.47025452 273.37988647 92.82025452 273.03988647 91.12025452 C272.37988647 91.12025452 271.71988647 91.12025452 271.03988647 91.12025452 C270.89551147 90.52212952 270.75113647 89.92400452 270.60238647 89.30775452 C270.15264258 87.55875047 269.61096307 85.83348429 269.03988647 84.12025452 C268.37988647 84.12025452 267.71988647 84.12025452 267.03988647 84.12025452 C266.04988647 81.64525452 266.04988647 81.64525452 265.03988647 79.12025452 C264.37988647 79.12025452 263.71988647 79.12025452 263.03988647 79.12025452 C262.79238647 78.33650452 262.54488647 77.55275452 262.28988647 76.74525452 C260.83207784 73.68385638 259.95995175 73.53318933 257.03988647 72.12025452 C256.28988647 69.99525452 256.28988647 69.99525452 256.03988647 68.12025452 C254.71988647 67.79025452 253.39988647 67.46025452 252.03988647 67.12025452 C251.95738647 66.52212952 251.87488647 65.92400452 251.78988647 65.30775452 C250.82411868 62.49093179 249.5512008 61.6422632 247.03988647 60.12025452 C246.37988647 60.12025452 245.71988647 60.12025452 245.03988647 60.12025452 C245.03988647 59.46025452 245.03988647 58.80025452 245.03988647 58.12025452 C244.37988647 58.12025452 243.71988647 58.12025452 243.03988647 58.12025452 C243.03988647 57.46025452 243.03988647 56.80025452 243.03988647 56.12025452 C240.47842077 53.82376803 239.56021075 53.12025452 236.03988647 53.12025452 C236.03988647 52.46025452 236.03988647 51.80025452 236.03988647 51.12025452 C234.60694149 50.27911281 233.16834242 49.44759764 231.72738647 48.62025452 C230.92687866 48.15619202 230.12637085 47.69212952 229.30160522 47.21400452 C227.00847468 45.90257566 227.00847468 45.90257566 224.03988647 46.12025452 C224.03988647 45.46025452 224.03988647 44.80025452 224.03988647 44.12025452 C217.28483046 40.87467046 217.28483046 40.87467046 210.03988647 39.12025452 C210.03988647 38.46025452 210.03988647 37.80025452 210.03988647 37.12025452 C208.43577906 36.66691981 206.83164102 36.2136933 205.22738647 35.76087952 C203.70009996 35.31360275 202.17956135 34.84291286 200.66488647 34.35462952 C195.0809003 32.57473392 189.88451045 31.59159516 184.03988647 31.12025452 C184.03988647 30.79025452 184.03988647 30.46025452 184.03988647 30.12025452 C183.2690271 30.05966858 182.49816772 29.99908264 181.70394897 29.93666077 C180.70105835 29.8528717 179.69816772 29.76908264 178.66488647 29.68275452 C177.6671521 29.60154358 176.66941772 29.52033264 175.64144897 29.43666077 C173.03988647 29.12025452 173.03988647 29.12025452 171.03988647 28.12025452 C160.77300206 26.62467153 150.27703542 26.99112933 139.93051147 27.02259827 C138.10920247 27.02446728 136.28789295 27.0258889 134.46658325 27.02688599 C129.71231659 27.03067313 124.95808131 27.04047019 120.2038269 27.05158997 C114.47838998 27.06370234 108.75294246 27.06822446 103.02749634 27.07404327 C94.36493801 27.08368459 85.70244829 27.10286757 77.03988647 27.12025452 Z M293.03988647 218.12025452 C293.03988647 218.45025452 293.03988647 218.78025452 293.03988647 219.12025452 C221.75988647 219.45025452 150.47988647 219.78025452 77.03988647 220.12025452 C77.36988647 234.97025452 77.69988647 249.82025452 78.03988647 265.12025452 C151.95988647 265.12025452 225.87988647 265.12025452 302.03988647 265.12025452 C302.03988647 249.61025452 302.03988647 234.10025452 302.03988647 218.12025452 C299.06988647 218.12025452 296.09988647 218.12025452 293.03988647 218.12025452 Z M77.03988647 315.12025452 C77.03988647 317.76025452 77.03988647 320.40025452 77.03988647 323.12025452 C76.70988647 323.12025452 76.37988647 323.12025452 76.03988647 323.12025452 C76.03988647 356.45025452 76.03988647 389.78025452 76.03988647 424.12025452 C76.36988647 424.12025452 76.69988647 424.12025452 77.03988647 424.12025452 C77.03988647 434.68025452 77.03988647 445.24025452 77.03988647 456.12025452 C106.40988647 456.12025452 135.77988647 456.12025452 166.03988647 456.12025452 C166.03988647 455.79025452 166.03988647 455.46025452 166.03988647 455.12025452 C178.90988647 453.14025452 178.90988647 453.14025452 192.03988647 451.12025452 C192.03988647 450.46025452 192.03988647 449.80025452 192.03988647 449.12025452 C194.01988647 449.12025452 195.99988647 449.12025452 198.03988647 449.12025452 C198.03988647 448.46025452 198.03988647 447.80025452 198.03988647 447.12025452 C201.33988647 446.79025452 204.63988647 446.46025452 208.03988647 446.12025452 C208.03988647 445.46025452 208.03988647 444.80025452 208.03988647 444.12025452 C209.35988647 444.12025452 210.67988647 444.12025452 212.03988647 444.12025452 C212.03988647 443.46025452 212.03988647 442.80025452 212.03988647 442.12025452 C213.05051147 442.03775452 214.06113647 441.95525452 215.10238647 441.87025452 C219.41775563 441.28019384 222.38726845 439.43109449 226.03988647 437.12025452 C226.03988647 436.46025452 226.03988647 435.80025452 226.03988647 435.12025452 C226.80301147 434.99650452 227.56613647 434.87275452 228.35238647 434.74525452 C231.24255783 434.2392266 231.24255783 434.2392266 234.03988647 432.12025452 C234.03988647 431.46025452 234.03988647 430.80025452 234.03988647 430.12025452 C235.02988647 430.12025452 236.01988647 430.12025452 237.03988647 430.12025452 C237.03988647 429.46025452 237.03988647 428.80025452 237.03988647 428.12025452 C237.63801147 427.99650452 238.23613647 427.87275452 238.85238647 427.74525452 C241.30219996 427.16549466 241.30219996 427.16549466 244.03988647 425.12025452 C244.03988647 424.46025452 244.03988647 423.80025452 244.03988647 423.12025452 C244.69988647 423.12025452 245.35988647 423.12025452 246.03988647 423.12025452 C246.03988647 422.46025452 246.03988647 421.80025452 246.03988647 421.12025452 C247.35988647 420.79025452 248.67988647 420.46025452 250.03988647 420.12025452 C250.36988647 418.80025452 250.69988647 417.48025452 251.03988647 416.12025452 C251.69988647 416.12025452 252.35988647 416.12025452 253.03988647 416.12025452 C253.03988647 415.46025452 253.03988647 414.80025452 253.03988647 414.12025452 C253.69988647 414.12025452 254.35988647 414.12025452 255.03988647 414.12025452 C255.69988647 412.47025452 256.35988647 410.82025452 257.03988647 409.12025452 C258.02988647 409.12025452 259.01988647 409.12025452 260.03988647 409.12025452 C260.03988647 408.13025452 260.03988647 407.14025452 260.03988647 406.12025452 C260.69988647 406.12025452 261.35988647 406.12025452 262.03988647 406.12025452 C262.03988647 405.46025452 262.03988647 404.80025452 262.03988647 404.12025452 C262.69988647 404.12025452 263.35988647 404.12025452 264.03988647 404.12025452 C266.3558067 400.89911295 266.3558067 400.89911295 267.03988647 397.12025452 C267.69988647 397.12025452 268.35988647 397.12025452 269.03988647 397.12025452 C269.87837452 395.66487884 270.71052582 394.20585078 271.53988647 392.74525452 C272.00394897 391.93314514 272.46801147 391.12103577 272.94613647 390.28431702 C274.19024507 388.22688578 274.19024507 388.22688578 274.03988647 386.12025452 C274.69988647 386.12025452 275.35988647 386.12025452 276.03988647 386.12025452 C277.02988647 382.82025452 278.01988647 379.52025452 279.03988647 376.12025452 C279.69988647 376.12025452 280.35988647 376.12025452 281.03988647 376.12025452 C283.01988647 370.51025452 284.99988647 364.90025452 287.03988647 359.12025452 C287.36988647 359.12025452 287.69988647 359.12025452 288.03988647 359.12025452 C288.03988647 356.81025452 288.03988647 354.50025452 288.03988647 352.12025452 C288.69988647 352.12025452 289.35988647 352.12025452 290.03988647 352.12025452 C291.89143215 348.0515218 292.58634944 344.22943046 293.16488647 339.80775452 C293.41625366 337.9263678 293.41625366 337.9263678 293.67269897 336.00697327 C293.79387085 335.05435608 293.91504272 334.10173889 294.03988647 333.12025452 C294.36988647 333.12025452 294.69988647 333.12025452 295.03988647 333.12025452 C295.03988647 330.81025452 295.03988647 328.50025452 295.03988647 326.12025452 C295.69988647 326.12025452 296.35988647 326.12025452 297.03988647 326.12025452 C297.36988647 322.49025452 297.69988647 318.86025452 298.03988647 315.12025452 C225.10988647 315.12025452 152.17988647 315.12025452 77.03988647 315.12025452 Z " fill="#004A44" transform="translate(54.960113525390625,9.879745483398438)"/>
</svg>
